# xmcd CD database file
#
# Track frame offsets:
#	150
#	20499
#	44773
#	73678
#	105347
#	130281
#	164214
#
# Disc length: 2476 seconds
#
# Revision: 0
# Processed by: cddbd v1.5.2PL0 Copyright (c) Steve Scherf et al.
# Submitted via: CDex 1.70beta2
#
DISCID=6409aa07
DTITLE=Glenn White - Sacred Machines
DYEAR=2008
DGENRE=Jazz
TTITLE0=Sacred Machines
TTITLE1=Split Infinity
TTITLE2=Triality
TTITLE3=Washington Heights
TTITLE4=Phobia
TTITLE5=Wish
TTITLE6=Aftermath
EXTD=YEAR: 2008
EXTT0=
EXTT1=
EXTT2=
EXTT3=
EXTT4=
EXTT5=
EXTT6=
PLAYORDER=
